<?xml version="1.0" standalone="no"?>
<!DOCTYPE svg PUBLIC "-//W3C//DTD SVG 20010904//EN"
 "http://www.w3.org/TR/2001/REC-SVG-20010904/DTD/svg10.dtd">
<svg version="1.0" xmlns="http://www.w3.org/2000/svg"
 width="1000.000000pt" height="1000.000000pt" viewBox="0 0 1000.000000 1000.000000"
 preserveAspectRatio="xMidYMid meet">
<metadata>
Created by potrace 1.14, written by Peter Selinger 2001-2017
</metadata>
<g transform="translate(0.000000,1000.000000) scale(0.100000,-0.100000)"
fill="#000000" stroke="none">
<path d="M4769 9066 c-2 -2 -52 -7 -110 -10 -59 -4 -115 -8 -125 -10 -11 -2
-44 -7 -74 -10 -30 -4 -66 -8 -80 -11 -14 -2 -41 -6 -60 -9 -56 -9 -283 -54
-300 -60 -8 -3 -26 -8 -40 -10 -49 -9 -211 -56 -231 -66 -10 -6 -19 -8 -19 -6
0 5 -236 -75 -275 -93 -62 -29 -193 -81 -203 -81 -7 0 -12 -4 -12 -10 0 -5 -6
-10 -13 -10 -22 0 -346 -168 -409 -212 -14 -10 -28 -18 -31 -18 -4 0 -91 -55
-157 -100 -73 -49 -135 -94 -147 -106 -8 -8 -17 -14 -21 -14 -4 0 -19 -10 -34
-23 -15 -12 -42 -33 -60 -47 -17 -14 -62 -50 -98 -80 -36 -30 -71 -59 -78 -65
-34 -26 -354 -347 -398 -399 -27 -32 -59 -69 -72 -82 -12 -13 -22 -27 -22 -33
0 -5 -3 -11 -8 -13 -7 -3 -45 -48 -80 -96 -9 -13 -24 -31 -32 -40 -29 -34
-200 -291 -200 -301 0 -6 -4 -11 -10 -11 -5 0 -10 -5 -10 -11 0 -6 -8 -23 -18
-37 -11 -15 -34 -56 -53 -92 -19 -36 -37 -67 -40 -70 -3 -3 -37 -70 -76 -150
-87 -178 -212 -491 -232 -582 -1 -4 -9 -27 -17 -50 -16 -45 -76 -275 -89 -343
-5 -22 -10 -47 -12 -55 -2 -8 -6 -28 -8 -45 -3 -16 -7 -41 -10 -55 -17 -86
-20 -107 -35 -236 -26 -219 -34 -602 -18 -829 7 -97 33 -319 43 -361 2 -12 7
-39 11 -60 3 -21 12 -65 19 -97 16 -68 15 -64 15 -78 0 -5 5 -7 11 -3 8 4 8 0
0 -15 -7 -11 -8 -21 -3 -21 5 0 9 -6 9 -12 0 -13 24 -110 44 -183 15 -51 107
-334 118 -360 5 -11 13 -31 19 -45 153 -375 325 -683 546 -980 38 -52 73 -97
76 -100 3 -3 23 -27 44 -55 43 -54 41 -51 121 -141 144 -161 366 -372 510
-484 39 -30 72 -57 75 -60 5 -7 234 -168 266 -187 10 -7 62 -38 114 -70 52
-32 97 -60 100 -63 3 -3 82 -44 175 -91 210 -106 390 -181 605 -252 291 -96
596 -162 885 -191 28 -3 79 -8 115 -12 145 -16 586 -10 781 11 51 6 304 43
334 49 241 51 392 91 570 152 88 30 165 56 170 58 28 9 210 86 335 143 19 9
37 15 39 14 2 -2 7 1 10 6 3 5 49 31 101 58 52 26 97 51 100 54 3 3 19 13 35
21 17 8 32 18 35 21 3 3 20 14 37 23 34 17 100 59 120 76 7 6 24 15 38 22 14
6 25 15 25 19 0 4 8 10 18 13 10 4 27 14 38 24 11 10 33 27 49 38 28 17 207
156 231 179 6 5 35 30 65 55 59 50 379 365 379 374 0 3 10 16 22 28 38 39 184
220 218 268 13 19 27 37 30 40 14 13 150 220 150 229 0 5 4 11 8 13 16 6 207
348 195 348 -5 0 -3 4 3 8 11 7 94 175 98 197 1 6 4 15 8 20 4 6 20 46 38 90
17 44 35 89 40 100 5 11 28 79 51 150 23 72 44 137 47 145 3 8 6 20 7 25 2 6
12 44 23 85 38 139 89 397 107 540 24 185 30 304 30 560 -1 319 -15 487 -69
775 -4 23 -19 97 -21 105 0 3 -5 23 -10 45 -5 22 -9 42 -10 45 -1 3 -5 21 -9
40 -14 65 -95 335 -122 405 -14 39 -29 81 -34 95 -8 25 -51 127 -86 205 -10
22 -17 43 -16 48 1 4 -3 7 -8 7 -5 0 -9 3 -8 8 3 8 -66 150 -98 202 -23 39
-22 36 -30 68 -4 12 -10 22 -15 22 -5 0 -9 7 -9 15 0 8 -4 15 -10 15 -5 0 -10
5 -10 10 0 6 -18 40 -40 76 -22 36 -40 70 -40 74 0 5 -3 10 -7 12 -11 4 -73
97 -73 107 0 5 -3 11 -7 13 -5 2 -28 32 -53 68 -47 68 -58 82 -102 135 -16 18
-28 35 -28 39 0 3 -8 14 -17 24 -10 10 -31 35 -48 56 -29 37 -96 113 -160 181
-16 18 -52 55 -78 84 -26 28 -49 51 -51 51 -2 0 -34 29 -70 65 -36 36 -70 65
-76 65 -5 0 -10 4 -10 9 0 7 -167 149 -250 211 -44 33 -114 84 -165 119 -28
19 -52 38 -55 41 -3 3 -16 11 -30 18 -29 14 -63 35 -70 43 -9 10 -127 79 -136
79 -4 0 -15 6 -23 14 -24 21 -391 205 -421 211 -3 1 -23 9 -45 19 -138 61
-480 172 -646 210 -98 22 -261 55 -300 60 -19 3 -47 7 -64 10 -16 3 -55 8 -85
11 -30 3 -68 8 -85 11 -78 11 -180 16 -421 19 -144 2 -263 2 -265 1z m-3889
-4758 c0 -9 -4 -19 -8 -22 -4 -2 -8 11 -8 30 0 20 3 29 8 21 4 -6 8 -20 8 -29z"/>
</g>
</svg>
